<?xml version="1.0" encoding="utf-8"?>
<!-- Generator: Adobe Illustrator 24.2.1, SVG Export Plug-In . SVG Version: 6.00 Build 0)  -->
<svg version="1.1" id="Слой_1" xmlns="http://www.w3.org/2000/svg" xmlns:xlink="http://www.w3.org/1999/xlink" x="0px" y="0px"
	 viewBox="0 0 24 24" style="enable-background:new 0 0 24 24;" xml:space="preserve">
<style type="text/css">
	.st0{fill:#5E72BC;}
</style>
<path class="st0" d="M2.4,20.8h19.2c0.8,0,1.4,0.6,1.4,1.4l0,0c0,0.8-0.6,1.4-1.4,1.4H2.4C1.6,23.6,1,23,1,22.2l0,0
	C1.1,21.5,1.7,20.8,2.4,20.8z"/>
<path class="st0" d="M1.1,22.2v-2.7c0-0.8,0.6-1.4,1.4-1.4l0,0c0.8,0,1.4,0.6,1.4,1.4v2.7c0,0.8-0.6,1.4-1.4,1.4l0,0
	C1.7,23.6,1.1,23,1.1,22.2z"/>
<path class="st0" d="M20.3,22.2v-2.7c0-0.8,0.6-1.4,1.4-1.4l0,0c0.8,0,1.4,0.6,1.4,1.4v2.7c0,0.8-0.6,1.4-1.4,1.4l0,0
	C20.9,23.6,20.3,23,20.3,22.2z"/>
<path class="st0" d="M12,16.7c-0.3,0-0.6-0.1-0.8-0.2l-5.5-3.9c-0.6-0.4-0.8-1.3-0.3-1.9c0.4-0.6,1.3-0.8,1.9-0.3l0,0l4.7,3.3
	l4.7-3.5c0.6-0.5,1.5-0.3,1.9,0.3c0.5,0.6,0.3,1.5-0.3,1.9l-5.5,4.1C12.6,16.6,12.3,16.7,12,16.7z"/>
<path class="st0" d="M12,14c-0.8,0-1.4-0.6-1.4-1.4v-11c0-0.8,0.6-1.4,1.4-1.4c0.8,0,1.4,0.6,1.4,1.4v11C13.4,13.4,12.8,14,12,14z"
	/>
</svg>
