<?xml version="1.0" encoding="utf-8"?>
<!-- Generator: Adobe Illustrator 24.2.1, SVG Export Plug-In . SVG Version: 6.00 Build 0)  -->
<svg version="1.1" id="Слой_1" xmlns="http://www.w3.org/2000/svg" xmlns:xlink="http://www.w3.org/1999/xlink" x="0px" y="0px"
	 viewBox="0 0 65 80" enable-background="new 0 0 65 80" xml:space="preserve">
<path id="Icon_metro-file-zip" fill="#33B3B8" d="M61.9,17.9c-1.9-2.7-4-5.3-6.3-7.8c-2.2-2.4-4.7-4.7-7.2-6.8
	c-3.7-3-5.6-3.3-6.6-3.3h-36C2.5,0.1-0.1,2.9,0,6.3v67.5c-0.1,3.3,2.5,6.1,5.8,6.3h53.4c3.3-0.1,5.9-2.9,5.8-6.3V25
	C65,23.9,64.7,21.9,61.9,17.9L61.9,17.9z M52.3,13.6c1.9,2,3.6,4.1,5.3,6.4H46.4V8C48.5,9.7,50.5,11.6,52.3,13.6z M60.4,73.8
	c0,0.7-0.5,1.2-1.2,1.3H5.8c-0.7,0-1.2-0.6-1.2-1.3V6.3C4.6,5.6,5.1,5,5.8,5h36v17.5c0,1.3,1,2.4,2.3,2.5h16.2L60.4,73.8z M13.9,5
	h9.3v5h-9.3V5z M23.2,10h9.3v5h-9.3L23.2,10z M13.9,15h9.3v5h-9.3L13.9,15z M23.2,20h9.3v5h-9.3L23.2,20z M13.9,25h9.3v5h-9.3
	L13.9,25z M23.2,30h9.3v5h-9.3L23.2,30z M13.9,35h9.3v5h-9.3L13.9,35z M23.2,40h9.3v5h-9.3L23.2,40z M13.9,66.3
	c-0.1,2,1.5,3.7,3.5,3.8H29c2-0.1,3.5-1.8,3.5-3.8V53.8c0.1-2-1.5-3.7-3.5-3.8h-5.8v-5h-9.3C13.9,45,13.9,66.3,13.9,66.3z M27.9,60
	v5h-9.3v-5H27.9z"/>
</svg>
