<?xml version="1.0" encoding="utf-8"?>
<!-- Generator: Adobe Illustrator 24.2.1, SVG Export Plug-In . SVG Version: 6.00 Build 0)  -->
<svg version="1.1" id="Слой_1" xmlns="http://www.w3.org/2000/svg" xmlns:xlink="http://www.w3.org/1999/xlink" x="0px" y="0px"
	 viewBox="0 0 65 80" enable-background="new 0 0 65 80" xml:space="preserve">
<path id="Icon_metro-file-empty" fill="#BFBFBF" d="M61.9,17.9c-1.9-2.7-4-5.3-6.3-7.8c-2.2-2.4-4.7-4.7-7.2-6.8
	c-3.7-3-5.6-3.3-6.6-3.3h-36C2.5,0.1-0.1,2.9,0,6.3v67.5c-0.1,3.3,2.5,6.1,5.8,6.3h53.4c3.3-0.1,5.9-2.9,5.8-6.3V25
	C65,23.9,64.7,21.9,61.9,17.9L61.9,17.9z M52.3,13.6c1.9,2,3.6,4.1,5.3,6.4H46.4V8C48.5,9.7,50.5,11.6,52.3,13.6L52.3,13.6z
	 M60.4,73.8c0,0.7-0.5,1.2-1.2,1.3H5.8c-0.7,0-1.2-0.6-1.2-1.3V6.3C4.6,5.6,5.1,5,5.8,5h36v17.5c0,1.3,1,2.4,2.3,2.5h16.2L60.4,73.8
	z"/>
</svg>
