<?xml version="1.0" encoding="utf-8"?>
<!-- Generator: Adobe Illustrator 24.2.1, SVG Export Plug-In . SVG Version: 6.00 Build 0)  -->
<svg version="1.1" id="Слой_1" xmlns="http://www.w3.org/2000/svg" xmlns:xlink="http://www.w3.org/1999/xlink" x="0px" y="0px"
	 viewBox="0 0 65 80" style="enable-background:new 0 0 65 80;" xml:space="preserve">
<style type="text/css">
	.st0{fill:#6DB16A;}
</style>
<g id="Слой_2_1_">
	<g id="Слой_1-2">
		<path id="Icon_awesome-file-excel" class="st0" d="M37.9,21.3V0H4.1C1.9-0.1,0.1,1.6,0,3.8l0,0v72.5c0.1,2.2,1.9,3.8,4,3.8
			c0,0,0,0,0,0h56.9c2.2,0.1,4-1.6,4.1-3.7l0,0V25H42C39.8,25.1,38,23.4,37.9,21.3z M48.1,37.9L37.9,52.5l10.2,14.6
			c0.6,0.9,0.3,2-0.5,2.6c-0.3,0.2-0.8,0.3-1.2,0.3h-5.9c-0.7,0-1.4-0.4-1.8-1c-3.3-5.7-6.2-10.7-6.2-10.7
			c-1.1,2.3-1.7,3.1-6.2,10.7c-0.4,0.6-1.1,1-1.8,1h-5.9c-1,0.1-1.9-0.7-2-1.7c0-0.4,0.1-0.8,0.3-1.2l10.2-14.6L16.9,37.9
			c-0.6-0.9-0.3-2,0.5-2.6c0,0,0,0,0,0c0.3-0.2,0.8-0.3,1.2-0.3h5.9c0.7,0,1.4,0.4,1.8,1c4.4,7.6,3.4,5.3,6.2,10.7
			c0,0,1-1.8,6.2-10.7c0.4-0.6,1.1-1,1.8-1h5.9c1-0.1,1.9,0.7,2,1.7C48.4,37.1,48.3,37.5,48.1,37.9z M65,19v1H43.3V0h1
			c1.1,0,2.1,0.4,2.9,1.1l16.6,15.3C64.6,17.1,65,18,65,19z"/>
	</g>
</g>
</svg>
