<?xml version="1.0" encoding="utf-8"?>
<!-- Generator: Adobe Illustrator 24.2.1, SVG Export Plug-In . SVG Version: 6.00 Build 0)  -->
<svg version="1.1" id="Слой_1" xmlns="http://www.w3.org/2000/svg" xmlns:xlink="http://www.w3.org/1999/xlink" x="0px" y="0px"
	 viewBox="0 0 65 80" enable-background="new 0 0 65 80" xml:space="preserve">
<path id="Icon_awesome-file-image" fill="#8383CF" d="M65,19.1V20H43.3V0h1c1.1,0,2.1,0.4,2.9,1.1l16.6,15.3
	C64.6,17.1,65,18,65,19.1z M42,25c-2.2,0.1-4-1.6-4.1-3.8V0H4.1C1.9-0.1,0.1,1.6,0,3.8v72.5c0.1,2.2,1.9,3.8,4.1,3.8h56.9
	c2.2,0.1,4-1.6,4.1-3.8V25H42z M19.1,27.5c4.5,0,8.1,3.4,8.1,7.5s-3.6,7.5-8.1,7.5s-8.1-3.4-8.1-7.5S14.6,27.5,19.1,27.5z M54.3,65
	H10.9l0.1-7.6l6.7-6.2c0.8-0.7,2-0.7,2.8,0.1l6.7,6.2l17.5-16.2c0.8-0.7,2.1-0.7,2.9,0l6.7,6.2V65z"/>
</svg>
