<svg xmlns="http://www.w3.org/2000/svg" viewBox="0 0 65 80.01"><defs><style>.cls-1{fill:#e94040;}</style></defs><g id="Слой_2" data-name="Слой 2"><g id="Слой_1-2" data-name="Слой 1"><path id="Icon_awesome-file-pdf" data-name="Icon awesome-file-pdf" class="cls-1" d="M30.79,40c-.85-2.5-.83-7.33-.34-7.33C31.87,32.69,31.74,38.46,30.79,40Zm-.29,7.37a68.44,68.44,0,0,1-4.81,9.8c3.1-1.09,6.6-2.68,10.65-3.42A20.72,20.72,0,0,1,30.5,47.39ZM14.57,66.89c0,.13,2.24-.84,5.91-6.28-1.13,1-4.92,3.83-5.91,6.28ZM42,25H65V76.25A3.9,3.9,0,0,1,60.94,80H4.06A3.9,3.9,0,0,1,0,76.26H0V3.75A3.91,3.91,0,0,1,4.06,0H37.92V21.25A3.92,3.92,0,0,0,42,25ZM40.62,51.85a16,16,0,0,1-7.22-8.41c.76-2.89,2-7.28,1.05-10-.8-4.59-7.18-4.14-8.09-1.06-.85,2.86-.07,6.89,1.37,12a140.1,140.1,0,0,1-6.91,13.4s0,0,0,0c-4.59,2.17-12.46,7-9.23,10.63A5.51,5.51,0,0,0,15.2,70c3,0,6-2.81,10.34-9.66,4.37-1.33,9.16-3,13.38-3.63a27.13,27.13,0,0,0,10.83,3c4.94,0,5.28-5,3.33-6.78-2.35-2.12-9.19-1.51-12.45-1.12Zm23.2-35.44L47.23,1.1A4.22,4.22,0,0,0,44.35,0h-1V20H65v-.95A3.63,3.63,0,0,0,63.82,16.41ZM51.27,56.3c.7-.42-.42-1.86-7.24-1.4C50.31,57.36,51.27,56.3,51.27,56.3Z"/></g></g></svg>